<mxfile host="app.diagrams.net" agent="Mozilla/5.0 (Windows NT 10.0; Win64; x64) AppleWebKit/537.36 (KHTML, like Gecko) Chrome/136.0.0.0 Safari/537.36" version="27.0.6">
  <diagram name="PÃ¡gina-1" id="2yyQO8UH-l32YvFvse_E">
    <mxGraphModel dx="1147" dy="1157" grid="1" gridSize="10" guides="1" tooltips="1" connect="1" arrows="1" fold="1" page="1" pageScale="1" pageWidth="1169" pageHeight="827" math="0" shadow="0">
      <root>
        <mxCell id="0" />
        <mxCell id="1" parent="0" />
        <mxCell id="PWiJq_fFGPzQmUUzT5vq-48" style="edgeStyle=orthogonalEdgeStyle;rounded=0;orthogonalLoop=1;jettySize=auto;html=1;entryX=0.5;entryY=0;entryDx=0;entryDy=0;" edge="1" parent="1" source="PWiJq_fFGPzQmUUzT5vq-40" target="PWiJq_fFGPzQmUUzT5vq-47">
          <mxGeometry relative="1" as="geometry" />
        </mxCell>
        <mxCell id="PWiJq_fFGPzQmUUzT5vq-50" style="edgeStyle=orthogonalEdgeStyle;rounded=0;orthogonalLoop=1;jettySize=auto;html=1;" edge="1" parent="1" source="PWiJq_fFGPzQmUUzT5vq-40" target="PWiJq_fFGPzQmUUzT5vq-41">
          <mxGeometry relative="1" as="geometry">
            <Array as="points">
              <mxPoint x="210" y="265" />
            </Array>
          </mxGeometry>
        </mxCell>
        <mxCell id="PWiJq_fFGPzQmUUzT5vq-51" style="edgeStyle=orthogonalEdgeStyle;rounded=0;orthogonalLoop=1;jettySize=auto;html=1;entryX=0.5;entryY=0;entryDx=0;entryDy=0;" edge="1" parent="1" source="PWiJq_fFGPzQmUUzT5vq-40" target="PWiJq_fFGPzQmUUzT5vq-46">
          <mxGeometry relative="1" as="geometry">
            <Array as="points">
              <mxPoint x="405" y="160" />
            </Array>
          </mxGeometry>
        </mxCell>
        <mxCell id="PWiJq_fFGPzQmUUzT5vq-52" style="edgeStyle=orthogonalEdgeStyle;rounded=0;orthogonalLoop=1;jettySize=auto;html=1;entryX=0.5;entryY=0;entryDx=0;entryDy=0;" edge="1" parent="1" source="PWiJq_fFGPzQmUUzT5vq-40" target="PWiJq_fFGPzQmUUzT5vq-44">
          <mxGeometry relative="1" as="geometry">
            <Array as="points">
              <mxPoint x="330" y="210" />
              <mxPoint x="365" y="210" />
            </Array>
          </mxGeometry>
        </mxCell>
        <mxCell id="PWiJq_fFGPzQmUUzT5vq-53" style="edgeStyle=orthogonalEdgeStyle;rounded=0;orthogonalLoop=1;jettySize=auto;html=1;entryX=0;entryY=0.5;entryDx=0;entryDy=0;" edge="1" parent="1" source="PWiJq_fFGPzQmUUzT5vq-40" target="PWiJq_fFGPzQmUUzT5vq-45">
          <mxGeometry relative="1" as="geometry">
            <Array as="points">
              <mxPoint x="270" y="95" />
            </Array>
          </mxGeometry>
        </mxCell>
        <mxCell id="PWiJq_fFGPzQmUUzT5vq-79" style="edgeStyle=orthogonalEdgeStyle;rounded=0;orthogonalLoop=1;jettySize=auto;html=1;entryX=0.5;entryY=0;entryDx=0;entryDy=0;" edge="1" parent="1" source="PWiJq_fFGPzQmUUzT5vq-40" target="PWiJq_fFGPzQmUUzT5vq-78">
          <mxGeometry relative="1" as="geometry">
            <Array as="points">
              <mxPoint x="240" y="290" />
            </Array>
          </mxGeometry>
        </mxCell>
        <mxCell id="PWiJq_fFGPzQmUUzT5vq-40" value="medico" style="rounded=0;whiteSpace=wrap;html=1;" vertex="1" parent="1">
          <mxGeometry x="210" y="110" width="120" height="60" as="geometry" />
        </mxCell>
        <mxCell id="PWiJq_fFGPzQmUUzT5vq-41" value="nome_medico" style="ellipse;whiteSpace=wrap;html=1;" vertex="1" parent="1">
          <mxGeometry x="100" y="250" width="90" height="30" as="geometry" />
        </mxCell>
        <mxCell id="PWiJq_fFGPzQmUUzT5vq-42" value="cpf_medico" style="ellipse;whiteSpace=wrap;html=1;" vertex="1" parent="1">
          <mxGeometry x="240" y="210" width="90" height="30" as="geometry" />
        </mxCell>
        <mxCell id="PWiJq_fFGPzQmUUzT5vq-44" value="cargo_medico" style="ellipse;whiteSpace=wrap;html=1;" vertex="1" parent="1">
          <mxGeometry x="320" y="240" width="90" height="30" as="geometry" />
        </mxCell>
        <mxCell id="PWiJq_fFGPzQmUUzT5vq-45" value="&lt;u&gt;id_medico&lt;/u&gt;" style="ellipse;whiteSpace=wrap;html=1;" vertex="1" parent="1">
          <mxGeometry x="400" y="80" width="90" height="30" as="geometry" />
        </mxCell>
        <mxCell id="PWiJq_fFGPzQmUUzT5vq-46" value="email_medico" style="ellipse;whiteSpace=wrap;html=1;" vertex="1" parent="1">
          <mxGeometry x="360" y="180" width="90" height="30" as="geometry" />
        </mxCell>
        <mxCell id="PWiJq_fFGPzQmUUzT5vq-47" value="crm_medico" style="ellipse;whiteSpace=wrap;html=1;" vertex="1" parent="1">
          <mxGeometry x="100" y="190" width="90" height="30" as="geometry" />
        </mxCell>
        <mxCell id="PWiJq_fFGPzQmUUzT5vq-49" style="edgeStyle=orthogonalEdgeStyle;rounded=0;orthogonalLoop=1;jettySize=auto;html=1;" edge="1" parent="1">
          <mxGeometry relative="1" as="geometry">
            <mxPoint x="320" y="170" as="sourcePoint" />
            <mxPoint x="290" y="210" as="targetPoint" />
            <Array as="points">
              <mxPoint x="290" y="170" />
              <mxPoint x="290" y="190" />
              <mxPoint x="291" y="190" />
              <mxPoint x="291" y="210" />
            </Array>
          </mxGeometry>
        </mxCell>
        <mxCell id="PWiJq_fFGPzQmUUzT5vq-57" style="edgeStyle=orthogonalEdgeStyle;rounded=0;orthogonalLoop=1;jettySize=auto;html=1;entryX=0.5;entryY=0;entryDx=0;entryDy=0;" edge="1" parent="1" source="PWiJq_fFGPzQmUUzT5vq-54" target="PWiJq_fFGPzQmUUzT5vq-55">
          <mxGeometry relative="1" as="geometry" />
        </mxCell>
        <mxCell id="PWiJq_fFGPzQmUUzT5vq-54" value="especialidade" style="rounded=0;whiteSpace=wrap;html=1;" vertex="1" parent="1">
          <mxGeometry x="630" y="110" width="120" height="60" as="geometry" />
        </mxCell>
        <mxCell id="PWiJq_fFGPzQmUUzT5vq-55" value="tipo_especialidade" style="ellipse;whiteSpace=wrap;html=1;" vertex="1" parent="1">
          <mxGeometry x="560" y="220" width="115" height="40" as="geometry" />
        </mxCell>
        <mxCell id="PWiJq_fFGPzQmUUzT5vq-56" value="&lt;u&gt;id_especialidade&lt;/u&gt;" style="ellipse;whiteSpace=wrap;html=1;" vertex="1" parent="1">
          <mxGeometry x="700" y="220" width="115" height="40" as="geometry" />
        </mxCell>
        <mxCell id="PWiJq_fFGPzQmUUzT5vq-58" style="edgeStyle=orthogonalEdgeStyle;rounded=0;orthogonalLoop=1;jettySize=auto;html=1;entryX=0.581;entryY=0.028;entryDx=0;entryDy=0;entryPerimeter=0;" edge="1" parent="1" source="PWiJq_fFGPzQmUUzT5vq-54" target="PWiJq_fFGPzQmUUzT5vq-56">
          <mxGeometry relative="1" as="geometry">
            <Array as="points">
              <mxPoint x="710" y="180" />
              <mxPoint x="767" y="180" />
            </Array>
          </mxGeometry>
        </mxCell>
        <mxCell id="PWiJq_fFGPzQmUUzT5vq-60" value="" style="edgeStyle=orthogonalEdgeStyle;rounded=0;orthogonalLoop=1;jettySize=auto;html=1;" edge="1" parent="1" source="PWiJq_fFGPzQmUUzT5vq-59" target="PWiJq_fFGPzQmUUzT5vq-54">
          <mxGeometry relative="1" as="geometry" />
        </mxCell>
        <mxCell id="PWiJq_fFGPzQmUUzT5vq-62" style="edgeStyle=orthogonalEdgeStyle;rounded=0;orthogonalLoop=1;jettySize=auto;html=1;entryX=1;entryY=0.5;entryDx=0;entryDy=0;" edge="1" parent="1" source="PWiJq_fFGPzQmUUzT5vq-59" target="PWiJq_fFGPzQmUUzT5vq-40">
          <mxGeometry relative="1" as="geometry" />
        </mxCell>
        <mxCell id="PWiJq_fFGPzQmUUzT5vq-59" value="TEM" style="rhombus;whiteSpace=wrap;html=1;" vertex="1" parent="1">
          <mxGeometry x="470" y="110" width="80" height="60" as="geometry" />
        </mxCell>
        <mxCell id="PWiJq_fFGPzQmUUzT5vq-63" style="edgeStyle=orthogonalEdgeStyle;rounded=0;orthogonalLoop=1;jettySize=auto;html=1;entryX=0.5;entryY=0;entryDx=0;entryDy=0;" edge="1" parent="1" source="PWiJq_fFGPzQmUUzT5vq-68">
          <mxGeometry relative="1" as="geometry">
            <mxPoint x="125" y="470" as="targetPoint" />
          </mxGeometry>
        </mxCell>
        <mxCell id="PWiJq_fFGPzQmUUzT5vq-64" style="edgeStyle=orthogonalEdgeStyle;rounded=0;orthogonalLoop=1;jettySize=auto;html=1;" edge="1" parent="1" source="PWiJq_fFGPzQmUUzT5vq-68">
          <mxGeometry relative="1" as="geometry">
            <mxPoint x="190" y="545" as="targetPoint" />
            <Array as="points">
              <mxPoint x="190" y="545" />
            </Array>
          </mxGeometry>
        </mxCell>
        <mxCell id="PWiJq_fFGPzQmUUzT5vq-65" style="edgeStyle=orthogonalEdgeStyle;rounded=0;orthogonalLoop=1;jettySize=auto;html=1;entryX=0.5;entryY=0;entryDx=0;entryDy=0;" edge="1" parent="1" source="PWiJq_fFGPzQmUUzT5vq-68" target="PWiJq_fFGPzQmUUzT5vq-71">
          <mxGeometry relative="1" as="geometry">
            <Array as="points">
              <mxPoint x="400" y="440" />
            </Array>
          </mxGeometry>
        </mxCell>
        <mxCell id="PWiJq_fFGPzQmUUzT5vq-66" style="edgeStyle=orthogonalEdgeStyle;rounded=0;orthogonalLoop=1;jettySize=auto;html=1;entryX=0.5;entryY=0;entryDx=0;entryDy=0;" edge="1" parent="1" source="PWiJq_fFGPzQmUUzT5vq-68" target="PWiJq_fFGPzQmUUzT5vq-70">
          <mxGeometry relative="1" as="geometry">
            <Array as="points">
              <mxPoint x="310" y="500" />
              <mxPoint x="345" y="500" />
            </Array>
          </mxGeometry>
        </mxCell>
        <mxCell id="PWiJq_fFGPzQmUUzT5vq-68" value="paciente" style="rounded=0;whiteSpace=wrap;html=1;" vertex="1" parent="1">
          <mxGeometry x="180" y="400" width="120" height="60" as="geometry" />
        </mxCell>
        <mxCell id="PWiJq_fFGPzQmUUzT5vq-69" value="cpf_paciente" style="ellipse;whiteSpace=wrap;html=1;" vertex="1" parent="1">
          <mxGeometry x="200" y="490" width="90" height="30" as="geometry" />
        </mxCell>
        <mxCell id="PWiJq_fFGPzQmUUzT5vq-70" value="nome_paciente" style="ellipse;whiteSpace=wrap;html=1;" vertex="1" parent="1">
          <mxGeometry x="300" y="520" width="90" height="30" as="geometry" />
        </mxCell>
        <mxCell id="PWiJq_fFGPzQmUUzT5vq-71" value="endereÃ§o_paciente" style="ellipse;whiteSpace=wrap;html=1;" vertex="1" parent="1">
          <mxGeometry x="340" y="460" width="120" height="30" as="geometry" />
        </mxCell>
        <mxCell id="PWiJq_fFGPzQmUUzT5vq-72" style="edgeStyle=orthogonalEdgeStyle;rounded=0;orthogonalLoop=1;jettySize=auto;html=1;" edge="1" parent="1" source="PWiJq_fFGPzQmUUzT5vq-68">
          <mxGeometry relative="1" as="geometry">
            <mxPoint x="250" y="490" as="targetPoint" />
          </mxGeometry>
        </mxCell>
        <mxCell id="PWiJq_fFGPzQmUUzT5vq-74" value="email_paciente" style="ellipse;whiteSpace=wrap;html=1;align=center;" vertex="1" parent="1">
          <mxGeometry x="140" y="545" width="100" height="40" as="geometry" />
        </mxCell>
        <mxCell id="PWiJq_fFGPzQmUUzT5vq-75" value="id_paciente" style="ellipse;whiteSpace=wrap;html=1;align=center;fontStyle=4;" vertex="1" parent="1">
          <mxGeometry x="70" y="469" width="100" height="40" as="geometry" />
        </mxCell>
        <mxCell id="PWiJq_fFGPzQmUUzT5vq-80" value="" style="edgeStyle=orthogonalEdgeStyle;rounded=0;orthogonalLoop=1;jettySize=auto;html=1;" edge="1" parent="1" source="PWiJq_fFGPzQmUUzT5vq-78" target="PWiJq_fFGPzQmUUzT5vq-68">
          <mxGeometry relative="1" as="geometry" />
        </mxCell>
        <mxCell id="PWiJq_fFGPzQmUUzT5vq-78" value="atende" style="shape=rhombus;perimeter=rhombusPerimeter;whiteSpace=wrap;html=1;align=center;" vertex="1" parent="1">
          <mxGeometry x="180" y="300" width="120" height="60" as="geometry" />
        </mxCell>
      </root>
    </mxGraphModel>
  </diagram>
</mxfile>
